<?xml version="1.0" standalone="no"?><!DOCTYPE svg PUBLIC "-//W3C//DTD SVG 1.1//EN" "http://www.w3.org/Graphics/SVG/1.1/DTD/svg11.dtd"><svg t="1730878921898" class="icon" viewBox="0 0 1024 1024" version="1.1" xmlns="http://www.w3.org/2000/svg" p-id="5343" xmlns:xlink="http://www.w3.org/1999/xlink" width="200" height="200"><path d="M528.854082 409.853034c0.415965 6.591438 0.831929 15.262698 0.831929 23.517994 0 2.047825-1.247894 3.711683-2.079822 5.759509-1.631861-1.215896-4.511615-1.631861-5.343544-3.295719-5.759509-11.966979-11.519017-23.933958-16.478594-35.900937a282.983858 282.983858 0 0 1-18.974382-82.552958 391.902566 391.902566 0 0 1 1.247894-58.171037 219.821246 219.821246 0 0 1 9.055227-45.820091 317.988872 317.988872 0 0 1 18.142453-47.867916 260.681761 260.681761 0 0 1 68.826128-86.648608c14.014804-11.966979 30.493399-18.558417 48.635851-20.638239 17.310523-1.663858 35.037011-2.495787 50.299708 8.255296 9.919154 7.007402 16.478594 15.678662 18.558417 28.47757 3.295719 20.222275 5.343544 40.860514 14.814736 59.418931 18.974381 37.116833 47.835919 51.195632 86.168649 50.331706 13.182875-0.383967 26.365751-0.383967 38.33273 4.959577 17.310523 7.839331 22.654067 23.517994 23.070032 41.276478 0.415965 18.174449-0.799932 36.316902-7.007403 53.659423-4.92758 14.014804-10.719086 13.59884-20.606242 9.471192-32.957188-13.59884-67.194267-16.478594-102.231278-11.966979-8.223298 1.279891-16.478594 1.663858-24.73389 2.495787-6.591438 0.415965-10.719086-2.495787-11.934982-9.087225-0.831929-3.711683-1.247894-7.839331-1.663858-11.551015-2.047825-30.557393-10.303121-58.618999-30.077434-82.552957-13.59884-16.510591-31.357325-25.597816-53.179463-20.638239-17.310523 3.711683-29.693467 15.678662-39.996588 29.309499-14.814736 19.838308-23.485996 42.524372-29.245505 66.874295a643.337115 643.337115 0 0 0-14.430769 132.884663z" fill="#F6CD49" p-id="5344"></path><path d="M701.799328 754.463635c-0.831929 32.605218-6.175473 67.258262-21.022207 99.86348-12.382944 27.645641-34.237079 46.236055-63.482584 54.491351-16.894559 4.959577-34.621046-2.079823-45.756096-16.510591-11.519017-15.262698-23.901961-29.725464-39.996588-40.44455-29.245505-18.974381-58.938972-18.558417-89.016406-2.079822-8.639263 4.959577-16.894559 10.751083-25.981783 14.878731-23.901961 11.519017-41.212484 7.423367-56.475182-14.878731a126.165237 126.165237 0 0 1-21.022207-49.499777c-0.383967-3.327716-0.799932-6.623435-0.383967-9.503189 0.799932-5.375541 3.295719-9.919154 9.055228-10.719086 40.79652-5.759509 75.001601-25.181852 106.326929-50.779668 2.879754-2.46379 6.20747-4.959577 9.503189-7.039399 8.639263-5.759509 14.014804-4.92758 19.774313 3.74368 10.303121 14.846733 21.022207 28.893535 35.452975 40.028585 15.262698 11.966979 31.741292 21.886133 51.93157 23.102029 25.981783 1.279891 47.419954-14.430769 55.259286-40.444549 8.223298-28.061606 5.759509-56.123212-1.663858-84.152821a468.63202 468.63202 0 0 0-35.452976-92.888075c-8.639263-17.34252-18.942384-33.821115-28.445573-50.747671-1.631861-2.495787-2.047825-5.759509-2.879754-8.67126 3.711683 0.415965 8.255296-0.415965 10.719085 1.631861 17.310523 12.798908 35.037011 25.181852 50.299709 39.644617a267.241201 267.241201 0 0 1 74.20167 125.4293c6.175473 24.38192 9.471192 48.315878 9.055227 75.545555z" fill="#5EC0F9" p-id="5345"></path><path d="M722.789537 438.26661c-27.613644 3.327716-57.275114 6.20747-86.96858 10.751083-18.142452 2.879754-35.86894 9.087225-53.595428 14.014805-1.663858 0.415965-3.711683-0.415965-5.759508-0.415965 0.799932-2.46379 0.799932-5.343544 2.047825-6.591438 5.759509-5.759509 11.519017-11.13505 17.726488-16.094627a288.967347 288.967347 0 0 1 87.800509-47.867916 257.162061 257.162061 0 0 1 115.830118-11.13505 233.996037 233.996037 0 0 1 91.512193 30.94136c18.942384 10.719086 37.500801 22.2701 50.683676 40.028585 14.846733 20.222275 22.686065 42.908339 19.80631 68.922121-1.663858 16.926556-10.719086 27.645641-25.981783 34.653043-14.846733 7.039399-30.077434 13.630837-43.260309 23.549991-33.821115 24.73389-43.292307 60.25086-31.741292 101.111374 2.46379 8.639263 4.095651 17.310523 5.343544 25.981783 2.46379 23.517994-9.471192 40.028585-32.157257 46.236056a154.418826 154.418826 0 0 1-49.46778 5.343544c-13.59884-0.383967-16.478594-5.343544-15.678662-18.558417 0.863926-17.758485 0.447962-35.51697-1.599864-53.243457-1.663858-14.846733-6.20747-29.3095-9.919153-44.156233-2.047825-8.255296-5.759509-16.094627-9.055228-24.317926-4.959577-11.998976-2.079823-18.590414 10.303121-22.718061 26.365751-8.255296 49.051815-21.886133 67.578235-42.940337 9.919154-11.519017 16.926556-24.73389 17.726488-39.996588 1.247894-19.838308-8.223298-35.51697-23.485997-47.899913-13.59884-11.13505-29.277502-16.926556-45.756096-20.222275-16.894559-2.46379-33.373153-3.295719-51.93157-5.375542z" fill="#9AD850" p-id="5346"></path><path d="M797.695147 33.021183c38.33273-1.215896 76.665459 34.237079 77.113421 77.177416 0.383967 42.108408-34.653044 78.841274-75.865528 79.673203-42.876342 0.383967-77.497389-34.269076-77.497388-78.42531 0-42.940337 34.237079-78.009345 76.249495-78.393312z" fill="#F6CD49" p-id="5347"></path><path d="M459.707981 434.202957c6.591438 2.079823 14.398772 4.57561 22.686065 7.455364 1.631861 0.831929 3.295719 2.46379 4.92758 4.127648-1.631861 1.247894-3.295719 3.711683-4.92758 3.711683-13.214873 1.247894-26.397748 2.46379-39.580623 2.879755a271.656824 271.656824 0 0 1-83.672862-11.519018c-18.558417-5.791506-36.700869-13.24687-54.011392-21.470168a242.795287 242.795287 0 0 1-39.580623-24.349923 374.688034 374.688034 0 0 1-38.33273-33.853112c-25.949786-27.229677-44.508203-59.418931-56.859149-95.351865a88.856419 88.856419 0 0 1-2.079823-52.795496c4.543612-16.958553 9.919154-33.437147 25.565819-44.156233 9.887157-7.039399 20.606242-9.919154 32.957188-7.455364 20.222275 4.159645 39.996588 9.503189 61.018795 7.0394 41.212484-4.543612 64.730478-26.429745 77.497388-63.162612 4.127648-12.382944 8.639263-24.765887 18.142452-34.237079 13.59884-13.630837 30.077434-12.798908 46.588026-7.455364 17.278526 5.759509 33.373153 13.630837 47.387957 25.597816 11.13505 9.503189 9.055227 14.846733 1.663858 22.718062-24.317925 25.981783-39.164659 56.955141-47.035987 91.608185a258.313963 258.313963 0 0 1-6.55944 23.933958c-1.663858 6.175473-6.20747 9.087225-12.382944 7.839331-3.711683-0.831929-7.839331-1.247894-11.519017-2.46379-29.277502-8.67126-58.555005-10.751083-87.80051-0.831929-20.222275 7.007402-35.037011 20.638239-37.948762 42.90834-2.46379 17.758485 4.159645 33.437147 13.214872 47.867916 13.59884 21.054204 31.741292 37.148831 51.93157 50.779668a563.951888 563.951888 0 0 0 118.709872 60.666824z" fill="#EB5651" p-id="5348"></path><path d="M202.001967 49.531774C214.384911 12.830905 260.940939-10.303121 301.353491 4.57561c39.548626 14.430769 61.434759 60.666824 47.803922 99.031551-14.846733 40.028585-59.770901 60.25086-100.983385 44.988162-39.996588-14.846733-61.018794-59.418931-46.172061-99.063549z" fill="#EB5651" p-id="5349"></path><path d="M564.915006 936.784081c0.831929 64.378508-51.93157 100.695409-102.199281 82.552957-33.40515-12.382944-50.715673-45.436124-47.00399-82.136993 2.879754-28.061606 16.06263-50.779668 42.044413-63.546579 25.565819-12.382944 51.099641-9.087225 73.785705 7.839332 21.438171 16.094627 32.957188 38.396724 33.40515 55.291283z" fill="#5EC0F9" p-id="5350"></path><path d="M1024.043837 656.264012c0.415965 26.781715-9.919154 48.667848-31.357325 64.346511-31.29333 23.134026-77.881356 16.094627-101.783317-15.262698-14.430769-18.974381-19.390346-40.028585-14.846733-63.99454 4.543612-23.485996 16.06263-41.244481 36.668871-52.379532 34.653044-18.558417 78.329318-10.335118 99.351524 21.854136 8.639263 13.214873 11.966979 26.013781 11.96698 45.436123z" fill="#9AD850" p-id="5351"></path><path d="M384.802372 628.650368c21.438171-17.758485 45.340132-35.900937 67.610232-55.707247 13.59884-12.382944 25.117857-26.84571 37.916765-40.44455 1.215896-1.279891 3.295719-1.663858 4.92758-2.879754 0.831929 2.46379 2.495787 4.92758 1.663858 6.591438-1.663858 7.839331-3.711683 15.678662-6.591438 23.102029a289.831274 289.831274 0 0 1-48.635851 87.480536c-25.149854 30.973358-56.059217 54.491351-91.512193 71.833872a244.299158 244.299158 0 0 1-94.00798 23.102029c-21.822138 0.831929-43.676274 1.215896-64.314513-6.623435-23.485996-9.055227-42.012416-23.933958-53.56343-47.451951-7.423367-15.262698-5.759509-29.3095 3.295719-43.324304 8.639263-13.630837 18.142452-27.645641 23.901961-42.90834 15.262698-39.228653 4.159645-73.913694-27.19768-102.775232a165.74586 165.74586 0 0 1-18.558417-19.390345c-14.814736-18.558417-13.182875-38.812689 2.495787-56.539177 11.103053-12.798908 24.317925-22.718062 38.716697-30.973358 11.966979-7.007402 16.510591-4.127648 23.102029 7.423367 8.639263 15.294695 18.558417 30.557393 29.693467 44.156233 9.471192 11.583012 21.022207 21.470168 32.125259 31.805287 6.20747 5.759509 13.59884 10.719086 20.606242 15.678662 10.719086 7.423367 11.966979 14.430769 3.327717 24.317925-17.726488 21.086201-29.693467 45.020159-33.821115 72.249837-2.46379 14.846733-0.831929 30.141429 6.175473 43.324304 9.503189 17.758485 25.981783 25.597816 45.372129 28.061606 17.278526 2.079823 33.789117-1.215896 49.435783-7.423367 16.510591-6.175473 30.94136-14.430769 47.835919-22.718062z" fill="#2B67D3" p-id="5352"></path><path d="M13.730029 606.700241c-14.846733-22.2701-17.726488-46.204058-8.255296-71.38591C19.521535 498.997429 62.397877 479.959053 99.450716 493.621888c22.2701 8.255296 37.532798 23.517994 46.588025 46.236055 8.639263 22.2701 8.639263 43.324304-2.879754 63.962544-19.390346 34.237079-60.60283 50.747671-95.639841 34.653043-13.59884-6.591438-23.485996-15.262698-33.789117-31.773289z" fill="#2B67D3" p-id="5353"></path></svg>