<?xml version="1.0" standalone="no"?><!DOCTYPE svg PUBLIC "-//W3C//DTD SVG 1.1//EN" "http://www.w3.org/Graphics/SVG/1.1/DTD/svg11.dtd"><svg t="1730258187404" class="icon" viewBox="0 0 1024 1024" version="1.1" xmlns="http://www.w3.org/2000/svg" p-id="12614" xmlns:xlink="http://www.w3.org/1999/xlink" width="200" height="200"><path d="M0 512v512h1024V0H0v512z m377.344-396.8c19.968 6.144 28.672 11.776 36.352 24.576 20.992 35.84 34.816 92.672 54.784 226.304 14.336 95.232 18.432 111.104 26.112 104.448 4.096-3.072 7.168-8.192 7.168-10.752 0-4.608 28.672-74.752 75.264-183.296 44.032-102.4 70.144-141.824 102.912-154.112 18.944-7.168 81.408-8.192 88.576-1.024 3.584 3.584 5.12 20.48 3.584 44.544-1.024 29.184 0 38.4 4.608 36.864 44.032-17.408 97.792-15.872 126.464 3.072 9.728 6.656 22.528 19.968 28.16 29.696 30.72 55.296 23.04 100.864-32.768 189.44-32.256 50.688-18.944 74.752 20.992 38.4 10.752-9.728 23.552-17.92 28.672-17.92 18.944 0 26.624 54.784 14.336 102.4-10.752 43.52-47.104 81.92-61.44 65.024-3.072-3.584-8.192-10.24-11.776-15.36-5.12-7.168-11.776-9.216-33.28-7.68l-27.136 1.536 13.312 17.408c19.968 27.648 17.408 44.544-11.264 71.168-40.96 37.888-71.168 41.984-111.104 15.872-60.928-40.448-83.968-103.936-88.576-244.224-1.536-45.568-4.608-82.944-6.656-82.944-1.536 0-8.704 13.312-15.36 29.184-6.144 16.384-20.48 48.64-31.232 72.192-11.264 23.552-19.968 43.52-19.968 45.056 0 3.584-23.04 55.808-61.44 137.728-25.6 54.784-32.768 64-51.712 64-10.24 0-18.944-6.144-33.792-24.576-10.752-13.312-22.528-29.696-25.6-36.864-28.16-60.416-43.52-122.88-52.736-220.16-3.584-35.328-8.192-72.192-9.728-81.92l-3.584-17.92-10.752 23.04c-17.408 37.888-25.088 56.32-44.544 107.52-20.48 53.248-22.016 56.32-57.344 130.56-17.92 37.376-31.744 58.368-51.2 77.312-36.352 35.84-89.088 53.76-103.936 35.84-4.608-5.632-1.536-15.872 15.36-47.104 29.184-55.296 82.944-162.816 96.768-194.048 6.656-14.336 18.432-39.424 26.624-56.32s25.088-54.784 37.888-84.48c12.8-29.696 25.088-58.368 27.648-64 17.92-40.96 26.624-64 30.72-81.408 3.584-17.408 3.072-20.992-8.704-31.744-10.752-9.728-11.776-13.824-7.168-19.456 8.192-10.24 40.448-19.968 72.704-23.04 4.096 0 19.456 3.072 33.792 7.168z m249.344 621.568c12.8 14.336 9.728 54.272-4.096 54.272-7.168 0-11.264-5.12-14.336-16.896-4.096-15.872-6.144-16.896-23.04-15.36-10.24 1.024-19.456 4.096-20.48 7.168-1.024 3.072 6.656 13.312 16.896 23.04 52.736 49.664 53.248 50.176 53.248 76.288 0 39.936-1.024 40.96-45.568 40.96-44.032 0-49.664-2.048-54.272-22.016-5.632-22.528 0.512-39.424 15.36-39.424 10.24 0 12.288 3.072 13.824 16.384 1.536 15.36 3.072 16.896 19.456 16.896 29.696 0 26.624-16.384-10.752-54.272-34.304-35.84-42.496-51.2-37.888-71.168 5.632-22.016 12.288-25.6 48.64-25.6 27.136 0 35.84 2.048 43.008 9.728z m64-2.56c3.072 3.584 9.216 24.576 13.312 46.592 11.264 58.368 14.848 60.928 25.088 19.968 15.872-62.464 19.968-71.168 34.816-72.704l13.312-1.536-11.776 52.736c-6.144 29.184-13.824 60.928-16.896 70.656-2.56 9.728-9.216 36.352-14.336 58.88-10.752 50.688-19.968 69.12-32.768 69.12-14.336 0-15.36-5.12-6.656-39.936 7.68-30.208 7.168-33.792-3.584-81.408-6.144-27.648-15.872-66.048-20.992-86.016-5.632-19.456-9.728-37.376-9.728-39.424 0-7.168 24.064-4.608 30.208 3.072z m201.216 1.536c11.776 10.752 12.8 51.712 1.536 55.808-10.24 4.096-22.016-6.144-24.064-19.968-1.024-9.216-5.12-11.264-18.944-11.264-10.24 0-18.432 3.072-19.968 6.656-1.024 4.096 13.824 22.016 34.304 40.96 35.328 33.28 36.352 35.328 36.352 58.368 0 39.424-0.512 39.936-48.64 39.936-49.152 0-55.296-4.096-52.736-36.864 1.536-19.456 3.072-22.016 14.336-22.016 10.24 0 13.312 3.072 15.36 15.36 2.56 13.824 4.608 15.36 20.48 15.36 13.824 0 18.432-2.048 19.456-10.24 1.536-10.24-8.704-23.04-49.664-60.928-17.92-16.896-20.992-23.04-20.992-40.448 0-31.232 10.24-39.424 50.176-39.424 24.064 0 36.352 2.56 43.008 8.704z" p-id="12615" fill="#894C84"></path><path d="M807.424 218.112c-1.536 1.536-1.536 6.144-0.512 9.728 1.536 3.584 0.512 8.192-2.56 10.24-3.584 1.536-5.632-1.024-5.632-7.168 0-12.288-4.096-13.312-24.064-4.608-14.848 6.144-46.08 29.696-39.936 29.696 2.048 0-3.584 7.168-12.288 15.872-11.264 11.264-15.872 20.48-15.872 32.768 0 9.728 2.048 18.944 5.12 20.48 6.656 4.096 30.72-12.288 30.72-20.992 0-4.096 1.536-7.168 4.096-7.68 2.048 0 10.24-1.024 18.944-2.048 8.192-1.024 22.016 1.024 30.208 5.632 11.264 5.12 16.384 5.632 18.944 1.536s5.12-2.56 9.216 4.608c4.096 7.68 3.584 10.752-1.536 12.8-4.608 2.048-8.192 13.824-9.216 35.328-1.536 17.92-5.632 39.936-9.728 49.152-6.656 16.384-6.656 17.408 5.632 26.624 7.168 5.632 10.24 10.24 7.68 10.24-3.072 0-8.192-2.56-11.264-5.632-9.728-9.728-18.432-2.56-33.792 26.624-8.192 15.36-20.992 36.864-29.184 48.128-7.68 11.264-13.312 22.016-11.776 24.576 1.024 2.048-3.584 8.704-10.752 14.336-17.408 13.824-16.896 19.968 2.048 19.968 8.704 0 15.36-2.56 15.36-5.12 0-3.072 2.56-5.12 5.632-5.12 2.56 0 3.584 2.048 2.048 5.12-5.632 8.704 24.064 5.632 34.816-4.096 10.24-8.192 10.24-8.192 7.168 0.512-3.584 8.704 0 9.216 44.032 8.704 62.464-1.024 58.368-2.048 73.216 13.824 6.656 7.168 12.8 12.288 13.824 11.264 16.896-26.112 25.6-53.248 28.16-85.504 1.024-19.968 1.024-36.864-1.024-36.864-6.144 0-23.552 20.48-23.552 27.648 0 4.608-3.584 6.144-10.24 4.608-7.168-2.048-10.24 0-10.24 5.632 0 7.68-1.024 7.68-13.824-0.512-19.456-11.776-27.136-22.016-27.136-35.328 0-7.168-4.096-12.8-10.752-14.848-8.192-2.56-9.216-5.12-4.096-10.752 7.68-9.728 16.896-9.216 12.8 1.024-1.536 4.096-1.024 6.144 2.048 4.608 3.072-1.536 5.12-6.656 5.12-11.264 0-4.096 4.608-14.336 10.24-22.016 5.632-8.192 8.704-17.92 7.168-22.528-2.048-5.632 0-8.192 6.144-8.192 6.656-0.512 13.824-8.704 21.504-24.576 11.776-25.088 21.504-66.048 12.288-53.248-3.584 5.632-5.12 4.608-7.68-3.584-1.536-6.144 0.512-11.264 4.608-12.8 7.168-2.56 10.24-29.184 3.584-28.16-2.56 0.512-7.68 0.512-11.776 0-6.144-0.512-6.144-2.048 1.024-7.68 8.192-6.144 7.68-8.192-9.728-25.088-17.92-18.432-19.968-18.944-55.296-18.944-19.968 0-37.888 1.536-39.936 3.072z m18.944 14.848c-2.048 4.096-4.096 7.68-5.12 7.68-1.024 0-2.048-3.584-2.048-7.68s2.048-7.68 5.12-7.68c2.56 0 3.584 3.584 2.048 7.68z m44.032 2.56c0 2.56-2.56 5.12-5.632 5.12-2.56 0-3.584-2.56-2.048-5.12 1.536-3.072 4.096-5.12 5.632-5.12 1.024 0 2.048 2.048 2.048 5.12z m-71.68 17.92c0 4.096-2.048 7.68-5.12 7.68-2.56 0-3.584-3.584-2.048-7.68 2.048-4.096 4.096-7.68 5.12-7.68 1.024 0 2.048 3.584 2.048 7.68z m51.2 3.072c0 2.56-2.048 4.608-5.12 4.608-2.56 0-5.12-3.584-5.12-8.192 0-4.096 2.56-6.144 5.12-4.608 3.072 1.536 5.12 5.12 5.12 8.192z m40.96 15.872c0 2.56-4.608 4.096-10.24 4.096s-10.24-2.56-10.24-5.12c0-3.072 2.56-5.12 6.144-5.12 4.608 0 4.608-1.536 0-6.144-3.584-3.584-6.144-8.704-6.144-11.776 0-5.632 19.968 17.92 20.48 24.064zM768 266.24c7.168 5.632 10.24 10.24 6.656 10.24-3.072 0-7.168-2.048-9.216-5.12-1.536-2.56-6.144-3.584-10.24-1.536-4.608 1.536-7.68-0.512-7.68-5.632 0-10.752 4.608-10.24 20.48 2.048z m60.416-4.096c-1.536 7.168-9.216 14.336-15.36 14.336-6.656 0-4.608-14.336 2.56-16.896 10.752-4.608 13.824-3.584 12.8 2.56z m-29.696 17.408c0 4.096-2.048 6.144-5.12 4.608-2.56-1.536-5.12-5.12-5.12-8.192 0-2.56 2.56-4.608 5.12-4.608 3.072 0 5.12 3.584 5.12 8.192z m49.152 9.728c0 9.216-1.536 16.384-4.096 14.848-5.12-3.072-5.632-32.768 0-32.768 2.048 0 3.584 8.192 4.096 17.92z m-113.152 2.56c-1.536 2.56-5.632 5.12-8.192 5.12-3.072 0-3.584-2.56-2.048-5.12 1.536-3.072 5.632-5.12 8.192-5.12 3.072 0 3.584 2.048 2.048 5.12z m147.968 20.992c-4.096 8.704-5.12 14.848-2.048 14.848 2.56 0 5.12 2.048 5.12 5.12 0 2.56-3.072 3.584-7.168 2.048-5.12-2.048-7.168-8.704-5.632-21.504 2.048-23.04 1.024-21.504 10.24-18.432 6.656 2.56 6.656 4.608-0.512 17.92z m-32.768 4.608c0 2.56-2.048 5.12-5.12 5.12-2.56 0-5.12-2.56-5.12-5.12 0-3.072 2.56-5.12 5.12-5.12 3.072 0 5.12 2.048 5.12 5.12z m5.12 14.336c0 2.56-3.584 4.608-7.68 4.608s-7.68-2.048-7.68-4.608c0-2.048 3.584-4.096 7.68-4.096s7.68 2.048 7.68 4.096z m48.64 17.408c-3.072 7.68-17.92 10.752-17.92 3.072 0-2.048 3.584-4.096 7.68-4.096s7.68-2.56 7.68-6.144c0-3.072 1.024-4.608 2.56-3.072 1.536 1.536 1.536 6.144 0 10.24z m-78.336 10.24c-4.608 4.608-6.144 3.584-6.144-6.144s1.536-10.752 6.144-6.144c4.608 4.608 4.608 7.68 0 12.288z m47.616-6.144c1.536 2.56 1.024 5.12-2.048 5.12-2.56 0-6.656-2.56-8.192-5.12-1.536-3.072-1.024-5.12 2.048-5.12 2.56 0 6.656 2.048 8.192 5.12z m-19.456 15.36c1.024 10.752-5.632 13.824-11.264 5.12-3.584-5.632 1.024-15.36 6.656-15.36 2.048 0 4.096 4.608 4.608 10.24z m27.136 8.192c0 4.096-2.048 6.144-5.12 4.608-2.56-1.536-5.12-5.12-5.12-8.192 0-2.56 2.56-4.608 5.12-4.608 3.072 0 5.12 3.584 5.12 8.192z m-51.2 7.68c0 3.072-2.048 3.584-5.12 2.048-2.56-1.536-5.12-5.632-5.12-8.192 0-3.072 2.56-3.584 5.12-2.048 3.072 1.536 5.12 5.632 5.12 8.192z m29.184 25.088c1.024 12.288-1.536 12.8-11.776 3.072-5.632-5.632-5.632-8.192-0.512-9.728 10.752-4.608 11.776-4.096 12.288 6.656z m-29.184 5.632c0 2.56-2.048 4.608-5.12 4.608-2.56 0-5.12-3.584-5.12-8.192 0-4.096 2.56-6.144 5.12-4.608 3.072 1.536 5.12 5.12 5.12 8.192z m-4.096 36.352c-3.584 3.584-6.144 4.096-6.144 1.024 0-7.168 6.144-13.312 9.728-9.728 1.024 1.536-0.512 5.632-3.584 8.704zM793.6 465.92c0 2.56-4.096 5.12-8.704 5.12-7.68 0-8.192-1.024-1.536-5.12 9.728-6.144 10.24-6.144 10.24 0z m23.04 0c1.536 2.56-0.512 5.12-4.608 5.12-4.608 0-8.192-2.56-8.192-5.12 0-3.072 2.048-5.12 4.608-5.12 3.072 0 6.656 2.048 8.192 5.12z m8.192 18.944c-4.096 7.68-5.12 7.68-5.632 1.024 0-8.704 5.12-16.384 9.216-12.8 1.024 1.536-0.512 6.656-3.584 11.776z m-15.872 2.56c0 2.048-3.584 4.096-7.68 4.096s-7.68-2.048-7.68-4.096c0-2.56 3.584-4.608 7.68-4.608s7.68 2.048 7.68 4.608z m46.08-1.024c0 2.56-2.048 5.12-5.12 5.12-2.56 0-5.12-2.56-5.12-5.12 0-3.072 2.56-5.12 5.12-5.12 3.072 0 5.12 2.048 5.12 5.12z m-15.36 10.24c0 2.56-3.584 5.12-8.192 5.12-4.096 0-6.144-2.56-4.608-5.12 1.536-3.072 5.12-5.12 8.192-5.12 2.56 0 4.608 2.048 4.608 5.12z m-51.2 8.704c0 8.704-4.096 8.192-13.312-0.512-6.144-6.656-6.144-7.68 3.072-6.656 5.632 0.512 10.24 3.584 10.24 7.168z m30.72-1.024c0 4.096-2.048 7.68-5.12 7.68-2.56 0-3.584-3.584-2.048-7.68 2.048-4.096 4.096-7.68 5.12-7.68 1.024 0 2.048 3.584 2.048 7.68z m40.96 2.56c0 2.56-2.048 5.12-5.12 5.12-2.56 0-5.12-2.56-5.12-5.12 0-3.072 2.56-5.12 5.12-5.12 3.072 0 5.12 2.048 5.12 5.12z m81.92 9.216c0 7.68-1.024 7.68-5.12 1.024-6.656-10.24-6.656-16.896 0-12.8 3.072 1.536 5.12 7.168 5.12 11.776z m-162.304 13.824c4.096 9.728-6.656 15.872-12.288 7.168-6.656-10.24-5.632-14.848 2.56-14.848 4.096 0 8.192 3.584 9.728 7.68z m18.944-2.56c0 2.56 4.608 5.12 10.24 5.12s10.24 2.048 10.24 5.12c0 6.656-1.536 6.656-17.92-1.024-12.8-5.632-17.408-14.336-7.68-14.336 3.072 0 5.12 2.048 5.12 5.12z m46.08 11.264c0 5.632-11.776 2.56-16.384-3.584-2.048-2.56-1.024-6.656 2.56-8.704 5.632-3.072 13.824 4.096 13.824 12.288z m30.72-11.264c6.144 4.096 5.632 5.12-3.584 5.12-6.656 0-11.776-2.56-11.776-5.12 0-6.656 5.632-6.656 15.36 0z m50.176 5.12c9.728 0 11.776 1.536 7.68 5.632-6.656 6.656-27.136-2.56-26.624-12.288 0-4.608 1.024-4.608 3.072 0 1.024 3.584 8.192 6.656 15.872 6.656z m-181.248 2.56c-2.048 4.096-4.096 7.68-5.12 7.68-1.024 0-2.048-3.584-2.048-7.68s2.048-7.68 5.12-7.68c2.56 0 3.584 3.584 2.048 7.68z m156.672 10.752c0 11.264-8.192 8.704-8.704-3.072-0.512-5.632 1.024-9.216 4.096-7.68 2.56 2.048 4.608 6.656 4.608 10.752z m-30.72-3.072c0 2.56-2.56 5.12-5.632 5.12-2.56 0-3.584-2.56-2.048-5.12 1.536-3.072 4.096-5.12 5.632-5.12 1.024 0 2.048 2.048 2.048 5.12z m-10.24 12.288c0 1.024-3.584 3.072-7.68 5.12-4.096 1.536-7.68 0.512-7.68-2.048 0-3.072 3.584-5.12 7.68-5.12s7.68 1.024 7.68 2.048z m51.2 13.312c0 2.56-2.048 5.12-5.12 5.12-2.56 0-5.12-2.56-5.12-5.12 0-3.072 2.56-5.12 5.12-5.12 3.072 0 5.12 2.048 5.12 5.12z" p-id="12616" fill="#894C84"></path><path d="M769.536 315.904c-7.168 2.56-8.704 51.2-2.56 85.504l3.584 19.968 11.264-25.088c14.848-33.28 17.92-50.176 12.288-65.024-5.12-13.312-14.336-18.944-24.576-15.36z" p-id="12617" fill="#894C84"></path></svg>