<?xml version="1.0" standalone="no"?><!DOCTYPE svg PUBLIC "-//W3C//DTD SVG 1.1//EN" "http://www.w3.org/Graphics/SVG/1.1/DTD/svg11.dtd"><svg t="1730256952039" class="icon" viewBox="0 0 1024 1024" version="1.1" xmlns="http://www.w3.org/2000/svg" p-id="3406" xmlns:xlink="http://www.w3.org/1999/xlink" width="200" height="200"><path d="M64 64m168 0l560 0q168 0 168 168l0 560q0 168-168 168l-560 0q-168 0-168-168l0-560q0-168 168-168Z" fill="#000000" p-id="3407"></path><path d="M480.96 825.152V896H128v-70.848h352.96z m-81.472-632.96v267.136c-1.088 52.224-36.224 128.896-128.512 128.896-80.96 0-126.72-61.44-128.64-64l61.76-45.44c0.768 1.024 25.408 32.64 66.88 32.64 44.8 0 51.2-37.12 51.84-53.184V192.128h76.672zM527.36 192c62.016 0.64 123.904 0.256 185.92 0.256 48.384 0 79.36 20.096 94.592 61.056 16.64 44.672 5.376 90.816-29.312 120.512-3.392 2.88-7.04 5.312-14.592 11.008 45.248 20.096 67.2 52.096 67.968 98.56 0.64 43.072-20.416 71.68-57.728 89.344a147.008 147.008 0 0 1-62.528 14.72H505.792v-19.456a38739.84 38739.84 0 0 0 0-354.432V192z m150.016 232.192l-18.816 0.128v0.128h-60.8v84.928h102.528c24.768-1.472 39.36-19.648 38.528-43.264-0.96-25.536-16.64-40.96-42.688-41.792-12.416-0.384-24.96 0-37.568 0z m-1.408-154.112h-11.456a743.68 743.68 0 0 0-13.12 0.192h-53.888v37.632l0.128 16.128v10.752l-0.128 17.472h20.992c11.136 0.256 48.896 0.64 69.248-0.832 24.704-1.92 36.736-17.088 36.352-41.344-0.384-24.576-12.8-37.888-37.824-39.68a189.568 189.568 0 0 0-10.304-0.32z" fill="#FFFFFF" p-id="3408"></path></svg>