<svg width="274.000000" height="274.000000" viewBox="0 0 274 274" fill="none" xmlns="http://www.w3.org/2000/svg" xmlns:xlink="http://www.w3.org/1999/xlink">
	<desc>
			Created with Pixso.
	</desc>
	<defs>
		<clipPath id="clip0_3">
			<rect id="svg2" width="795.299988" height="274.000000" fill="white" fill-opacity="0"/>
		</clipPath>
	</defs>
	<g clip-path="url(#clip0_3)">
		<path id="path14" d="M137.05 -0.04L0.05 136.96L137.05 274.09L274.05 136.96L137.05 -0.04Z" fill="#287AC8" fill-opacity="1.000000" fill-rule="nonzero"/>
		<path id="path18" d="M143 204.65L172.12 204.65L151.12 172.78L136.37 194.78L143 204.65Z" fill="#FFFFFF" fill-opacity="1.000000" fill-rule="nonzero"/>
		<path id="path22" d="M123.45 86.73L72.82 86.73L72.82 107.36L107.82 107.36L122.07 128.61L136.45 106.61L123.45 86.73Z" fill="#231F20" fill-opacity="1.000000" fill-rule="nonzero"/>
		<path id="path26" d="M136.43 150.52L121.68 172.77L100.68 204.65L129.8 204.65L136.43 194.77L151.18 172.77L165.68 151.15L150.93 128.52L136.43 150.52Z" fill="#231F20" fill-opacity="1.000000" fill-rule="nonzero"/>
		<path id="path30" d="M149.41 86.73L136.41 106.61L122.03 128.61L107.28 151.23L121.78 172.86L136.16 150.98L136.41 150.48L150.78 128.48L164.91 107.23L199.91 107.23L199.91 86.61L149.41 86.61L149.41 86.73Z" fill="#FFFFFF" fill-opacity="1.000000" fill-rule="nonzero"/>
	</g>
</svg>
