<?xml version="1.0" standalone="no"?><!DOCTYPE svg PUBLIC "-//W3C//DTD SVG 1.1//EN" "http://www.w3.org/Graphics/SVG/1.1/DTD/svg11.dtd"><svg t="1730258575279" class="icon" viewBox="0 0 1024 1024" version="1.1" xmlns="http://www.w3.org/2000/svg" p-id="15354" xmlns:xlink="http://www.w3.org/1999/xlink" width="200" height="200"><path d="M165.298603 231.790086l-17.477388-14.926071a42.643439 42.643439 0 0 0-44.11869-6.386971l-77.372588 31.761292a42.643439 42.643439 0 0 0-26.22476 39.224327v454.898058a42.626083 42.626083 0 0 0 26.207404 39.224327l77.389944 31.761291a42.660795 42.660795 0 0 0 44.11869-7.046494l17.477388-14.926072a23.482529 23.482529 0 0 1-32.820001-5.536531 21.313041 21.313041 0 0 1-4.477821-13.016922V250.968352a23.673443 23.673443 0 0 1 23.656087-23.656088 24.298256 24.298256 0 0 1 13.641735 4.477822z" fill="#52218A" p-id="15355"></path><path d="M1023.304723 852.315468v-2.360402a40.300393 40.300393 0 0 1-65.882985 31.136479L165.298603 231.790086l-17.477388-14.926071a42.626083 42.626083 0 0 0-44.11869-6.386971l-77.372588 31.761292a42.626083 42.626083 0 0 0-26.22476 39.224327v3.610026a24.732153 24.732153 0 0 1 24.506526-24.714797 24.298256 24.298256 0 0 1 18.119557 8.313475l660.808418 730.5097a63.939124 63.939124 0 0 0 72.686496 12.357399l210.82208-101.462573a63.95648 63.95648 0 0 0 36.239113-57.760425z" fill="#6C33AF" p-id="15356"></path><path d="M1023.304723 167.833606v-2.551317a63.939124 63.939124 0 0 0-36.256469-57.552154L776.226174 6.267561a63.95648 63.95648 0 0 0-72.686496 12.357399L42.73126 749.134661a24.732153 24.732153 0 0 1-34.746506 1.909148 24.940424 24.940424 0 0 1-7.879577-18.310471v3.610027a42.626083 42.626083 0 0 0 26.207404 39.224327l77.389944 31.761291a42.660795 42.660795 0 0 0 44.11869-7.029138l17.477388-14.926072 792.123135-648.65929A40.283037 40.283037 0 0 1 1023.304723 167.833606z" fill="#854CC7" p-id="15357"></path><path d="M987.06561 910.301519l-210.82208 101.254303a63.95648 63.95648 0 0 1-68.000404-8.330831 37.506093 37.506093 0 0 0 52.24125-8.730016c4.512533-6.196055 6.959715-13.641735 7.029138-21.313041V45.057991A37.523449 37.523449 0 0 0 708.243126 14.581036a63.95648 63.95648 0 0 1 68.000404-8.33083l210.82208 101.271658a63.95648 63.95648 0 0 1 36.239113 57.760425V852.523739a63.95648 63.95648 0 0 1-36.239113 57.77778z" fill="#B179F1" p-id="15358"></path></svg>